<svg width="64" height="64" viewBox="0 0 64 64" fill="none" xmlns="http://www.w3.org/2000/svg">
<path d="M7 21.3129V15.4193C7 12.6129 7.70614 10.5126 9.11841 9.11841C10.5488 7.70614 12.6853 7 15.528 7H21.2042V11.3726H15.5823C14.2243 11.3726 13.1832 11.7347 12.459 12.459C11.7347 13.1651 11.3726 14.2243 11.3726 15.6366V21.3129H7ZM24.925 11.3726V7H39.075V11.3726H24.925ZM52.6274 21.3129V15.6366C52.6274 14.2243 52.2562 13.1651 51.5139 12.459C50.7896 11.7347 49.7576 11.3726 48.4177 11.3726H42.7958V7H48.472C51.3147 7 53.4422 7.70614 54.8544 9.11841C56.2848 10.5126 57 12.6129 57 15.4193V21.3129H52.6274ZM52.6274 38.9663V25.0337H57V38.9663H52.6274ZM42.7958 57V52.6274H48.4177C49.7576 52.6274 50.7896 52.2743 51.5139 51.5682C52.2562 50.8439 52.6274 49.7757 52.6274 48.3634V42.6871H57V48.5807C57 51.3871 56.2848 53.4874 54.8544 54.8816C53.4422 56.2939 51.3147 57 48.472 57H42.7958ZM24.925 57V52.6274H39.075V57H24.925ZM15.528 57C12.6853 57 10.5488 56.2939 9.11841 54.8816C7.70614 53.4874 7 51.3871 7 48.5807V42.6871H11.3726V48.3634C11.3726 49.7757 11.7347 50.8439 12.459 51.5682C13.1832 52.2743 14.2243 52.6274 15.5823 52.6274H21.2042V57H15.528ZM7 38.9663V25.0337H11.3726V38.9663H7ZM17.6735 48.8794C16.8226 48.8794 16.1798 48.6621 15.7452 48.2276C15.3107 47.7749 15.0934 47.1141 15.0934 46.245V17.6735C15.0934 16.8045 15.3107 16.1526 15.7452 15.7181C16.1798 15.2654 16.8226 15.0391 17.6735 15.0391H46.3536C47.2046 15.0391 47.8474 15.2654 48.2819 15.7181C48.7165 16.1526 48.9337 16.8045 48.9337 17.6735V46.245C48.9337 47.1141 48.7165 47.7749 48.2819 48.2276C47.8474 48.6621 47.2046 48.8794 46.3536 48.8794H17.6735Z" fill="white"/>
</svg>
