<svg width="64" height="64" viewBox="0 0 64 64" fill="none" xmlns="http://www.w3.org/2000/svg">
<path d="M30.8785 37.3774C32.0749 37.3774 33.0945 36.9474 33.9374 36.0875C34.7938 35.2275 35.2221 34.1969 35.2221 32.9957C35.2221 32.204 35.0249 31.4806 34.6307 30.8253C34.2364 30.1565 33.7062 29.6241 33.0401 29.2283C32.3876 28.8188 31.667 28.614 30.8785 28.614C29.6822 28.614 28.6558 29.0508 27.7993 29.9244C26.9565 30.7844 26.535 31.8082 26.535 32.9957C26.535 34.1969 26.9565 35.2275 27.7993 36.0875C28.6558 36.9474 29.6822 37.3774 30.8785 37.3774ZM22.9868 50.1335H52.4126C53.2554 50.1335 53.9352 49.8741 54.4518 49.3554C54.982 48.8367 55.2471 48.1405 55.2471 47.2669V44.728L47.3146 37.2955C46.9067 36.927 46.4649 36.654 45.9891 36.4765C45.5269 36.2854 45.051 36.1898 44.5616 36.1898C44.045 36.1898 43.5556 36.2786 43.0934 36.456C42.6448 36.6198 42.2029 36.8928 41.7679 37.275L33.5091 44.6666L30.1852 41.6567C29.791 41.3155 29.3831 41.0561 28.9617 40.8787C28.5539 40.7012 28.1256 40.6125 27.677 40.6125C27.2827 40.6125 26.8885 40.7012 26.4943 40.8787C26.1 41.0425 25.7058 41.295 25.3115 41.6363L20.1115 46.3251V47.2465C20.1115 48.1201 20.3698 48.8162 20.8864 49.3349C21.403 49.8673 22.1032 50.1335 22.9868 50.1335ZM23.7413 53C21.607 53 20.0028 52.4676 18.9288 51.4029C17.8684 50.3519 17.3382 48.7685 17.3382 46.6527V27.3446C17.3382 25.2288 17.8684 23.6454 18.9288 22.5943C20.0028 21.5296 21.607 20.9972 23.7413 20.9972H51.5969C53.7177 20.9972 55.315 21.5296 56.389 22.5943C57.463 23.659 58 25.2424 58 27.3446V46.6527C58 48.7685 57.463 50.3519 56.389 51.4029C55.315 52.4676 53.7177 53 51.5969 53H23.7413ZM9.50766 41.411L6.16336 22.3896C5.7963 20.3147 6.04781 18.6631 6.91787 17.4346C7.78793 16.206 9.26975 15.4007 11.3633 15.0185L38.8111 10.1658C40.9046 9.7973 42.5632 10.043 43.7867 10.903C45.0238 11.7629 45.8327 13.2303 46.2134 15.3051L46.7232 18.2126H23.7413C21.7973 18.2126 20.1387 18.5743 18.7657 19.2978C17.4062 20.0076 16.3594 21.045 15.6253 22.41C14.9048 23.775 14.5445 25.4199 14.5445 27.3446V46.4684C14.5445 46.5094 14.5445 46.5503 14.5445 46.5913C14.5445 46.6186 14.5445 46.6459 14.5445 46.6732C11.7576 46.4684 10.0786 44.7144 9.50766 41.411Z" fill="white"/>
</svg>
