<svg width="64" height="64" viewBox="0 0 64 64" fill="none" xmlns="http://www.w3.org/2000/svg">
<path d="M12 48.9555V12.0142C12 10.21 12.5838 8.76038 13.7513 7.66548C14.9189 6.55516 16.4522 6 18.3514 6H35.6311C37.5458 6 39.087 6.55516 40.2545 7.66548C41.4221 8.76038 42.0058 10.21 42.0058 12.0142V31.4217C41.6945 31.3909 41.3831 31.3677 41.0718 31.3523C40.7605 31.3215 40.4491 31.306 40.1378 31.306C39.8264 31.306 39.5151 31.3215 39.2037 31.3523C38.8924 31.3677 38.5733 31.3986 38.2464 31.4448L38.223 12.6157C38.223 11.6904 37.9584 10.981 37.4291 10.4875C36.8998 9.97865 36.1448 9.7242 35.164 9.7242H18.8418C17.8455 9.7242 17.0827 9.97865 16.5534 10.4875C16.0241 10.981 15.7595 11.6904 15.7595 12.6157V48.3541C15.7595 49.2794 16.0241 49.9887 16.5534 50.4822C17.0827 50.9911 17.8455 51.2456 18.8418 51.2456H26.0572C26.2752 51.9549 26.5476 52.618 26.8745 53.2349C27.2014 53.8517 27.5594 54.43 27.9486 54.9698H18.3514C16.4522 54.9698 14.9189 54.4146 13.7513 53.3043C12.5838 52.2094 12 50.7598 12 48.9555ZM24.1891 14.8132C23.7221 14.8132 23.3252 14.659 22.9982 14.3505C22.6869 14.0267 22.5312 13.6335 22.5312 13.1708C22.5312 12.7236 22.6869 12.3458 22.9982 12.0374C23.3252 11.7135 23.7221 11.5516 24.1891 11.5516H29.84C30.2915 11.5516 30.6729 11.7135 30.9842 12.0374C31.3112 12.3458 31.4746 12.7236 31.4746 13.1708C31.4746 13.6335 31.3112 14.0267 30.9842 14.3505C30.6729 14.659 30.2915 14.8132 29.84 14.8132H24.1891ZM40.1378 58C38.5188 58 36.9932 57.6916 35.561 57.0747C34.1288 56.4733 32.8679 55.6329 31.7782 54.5534C30.6885 53.4739 29.8323 52.2248 29.2096 50.806C28.5869 49.3873 28.2755 47.8683 28.2755 46.2491C28.2755 44.6299 28.5869 43.1186 29.2096 41.7153C29.8323 40.2966 30.6885 39.0474 31.7782 37.968C32.8679 36.8731 34.1288 36.0249 35.561 35.4235C36.9932 34.8066 38.5188 34.4982 40.1378 34.4982C41.7723 34.4982 43.3057 34.8066 44.7379 35.4235C46.1701 36.0249 47.431 36.8654 48.5207 37.9448C49.6104 39.0243 50.4588 40.2734 51.066 41.6922C51.6887 43.1109 52 44.6299 52 46.2491C52 47.8529 51.6887 49.3642 51.066 50.7829C50.4433 52.2017 49.5793 53.4508 48.474 54.5302C47.3843 55.6097 46.1234 56.4579 44.6912 57.0747C43.259 57.6916 41.7412 58 40.1378 58ZM36.3082 50.9217C36.3082 51.3998 36.5028 51.7236 36.892 51.8932C37.2968 52.0629 37.7093 52.0243 38.1296 51.7776L45.9054 47.2438C46.3257 46.997 46.5203 46.6578 46.4892 46.226C46.4581 45.7788 46.2168 45.4241 45.7653 45.1619L38.1296 40.6744C37.7093 40.4276 37.2968 40.3968 36.892 40.5819C36.5028 40.7515 36.3082 41.0753 36.3082 41.5534V50.9217Z" fill="white"/>
</svg>
