<svg width="64" height="64" viewBox="0 0 64 64" fill="none" xmlns="http://www.w3.org/2000/svg">
<path d="M49.8697 28.0881C50.6037 28.0881 51.2248 27.8364 51.7329 27.333C52.2552 26.8156 52.5163 26.2003 52.5163 25.4872C52.5163 24.76 52.2552 24.1447 51.7329 23.6413C51.2248 23.1379 50.6037 22.8862 49.8697 22.8862C49.1498 22.8862 48.5288 23.1379 48.0065 23.6413C47.4984 24.1447 47.2443 24.76 47.2443 25.4872C47.2443 26.2003 47.4984 26.8156 48.0065 27.333C48.5288 27.8364 49.1498 28.0881 49.8697 28.0881ZM12.6482 52C10.4321 52 8.76656 51.4546 7.65147 50.3639C6.55049 49.2872 6 47.6651 6 45.4976V23.5364C6 21.383 6.55049 19.7679 7.65147 18.6911C8.76656 17.6004 10.4321 17.0551 12.6482 17.0551H18.5554C19.3882 17.0551 20.0022 16.9572 20.3974 16.7614C20.7926 16.5517 21.2231 16.1881 21.6889 15.6707L23.3827 13.7829C23.9191 13.2096 24.4978 12.7691 25.1189 12.4615C25.7541 12.1538 26.6151 12 27.702 12H36.1498C37.2367 12 38.0977 12.1538 38.7329 12.4615C39.3681 12.7691 39.9468 13.2096 40.4691 13.7829L42.1629 15.6707C42.4875 16.0203 42.7769 16.2999 43.0309 16.5097C43.2991 16.7055 43.6026 16.8453 43.9414 16.9292C44.2801 17.0131 44.7318 17.0551 45.2964 17.0551H51.3518C53.5537 17.0551 55.2123 17.6004 56.3274 18.6911C57.4425 19.7679 58 21.383 58 23.5364V45.4976C58 47.6651 57.4425 49.2872 56.3274 50.3639C55.2123 51.4546 53.5537 52 51.3518 52H12.6482ZM32 45.8123C33.595 45.8123 35.0912 45.5186 36.4886 44.9313C37.886 44.344 39.114 43.526 40.1726 42.4772C41.2313 41.4284 42.057 40.2119 42.6498 38.8275C43.2427 37.4431 43.5391 35.9469 43.5391 34.3388C43.5391 32.2132 43.0239 30.2835 41.9935 28.5496C40.9631 26.8156 39.5727 25.4382 37.8225 24.4174C36.0722 23.3966 34.1314 22.8862 32 22.8862C30.3909 22.8862 28.8876 23.1799 27.4902 23.7672C26.0928 24.3545 24.8648 25.1725 23.8062 26.2213C22.7617 27.2701 21.9359 28.4866 21.329 29.871C20.7362 31.2554 20.4397 32.7446 20.4397 34.3388C20.4397 35.9469 20.7362 37.4431 21.329 38.8275C21.9359 40.2119 22.7617 41.4284 23.8062 42.4772C24.8648 43.526 26.0928 44.344 27.4902 44.9313C28.8876 45.5186 30.3909 45.8123 32 45.8123ZM32 42.624C30.4615 42.624 29.057 42.2535 27.7866 41.5123C26.5304 40.7712 25.5212 39.7784 24.759 38.5338C24.0109 37.2753 23.6368 35.8769 23.6368 34.3388C23.6368 32.8145 24.0109 31.4302 24.759 30.1856C25.5212 28.9271 26.5304 27.9273 27.7866 27.1862C29.057 26.431 30.4615 26.0535 32 26.0535C33.5385 26.0535 34.9359 26.431 36.1922 27.1862C37.4625 27.9273 38.4718 28.9271 39.2199 30.1856C39.968 31.4302 40.342 32.8145 40.342 34.3388C40.342 35.8769 39.968 37.2753 39.2199 38.5338C38.4718 39.7784 37.4625 40.7712 36.1922 41.5123C34.9359 42.2535 33.5385 42.624 32 42.624Z" fill="white"/>
</svg>
