<svg xmlns="http://www.w3.org/2000/svg">
<path d="M12.7992 49C10.6669 49 9.00068 48.4037 7.80041 47.2112C6.60014 46.0187 6 44.3376 6 42.1681V20.8103C6 18.6552 6.62132 16.9813 7.86395 15.7888C9.12071 14.5963 10.7658 14 12.7992 14H35.7597C37.8919 14 39.5229 14.5963 40.6525 15.7888C41.7822 16.9813 42.347 18.6552 42.347 20.8103V42.1681C42.347 44.3376 41.7469 46.0187 40.5466 47.2112C39.3464 48.4037 37.6801 49 35.5479 49H12.7992ZM45.2277 37.8578V25.1207L52.9377 18.3534C53.3048 18.023 53.6861 17.7644 54.0815 17.5776C54.491 17.3908 54.8864 17.2974 55.2676 17.2974C56.0866 17.2974 56.7432 17.5776 57.2375 18.1379C57.7458 18.6839 58 19.4023 58 20.2931V42.7069C58 43.5977 57.7458 44.3233 57.2375 44.8836C56.7432 45.4296 56.0866 45.7026 55.2676 45.7026C54.8864 45.7026 54.491 45.6092 54.0815 45.4224C53.6861 45.2213 53.3048 44.9626 52.9377 44.6466L45.2277 37.8578Z" fill="white"/>
</svg>
